<?xml version="1.0" encoding="utf-8"?>
<!-- Generator: Adobe Illustrator 18.1.1, SVG Export Plug-In . SVG Version: 6.00 Build 0)  -->
<!DOCTYPE svg PUBLIC "-//W3C//DTD SVG 1.1//EN" "http://www.w3.org/Graphics/SVG/1.1/DTD/svg11.dtd">
<svg version="1.1" id="Layer_1" xmlns="http://www.w3.org/2000/svg" xmlns:xlink="http://www.w3.org/1999/xlink" x="0px" y="0px"
	 viewBox="0 0 30 30" enable-background="new 0 0 30 30" xml:space="preserve">
<g>
	<path fill="#FFB871" d="M27.1,23.9c1.8-2.5,2.9-5.5,2.9-8.9c0-8.3-6.7-15-15-15S0,6.7,0,15c0,8.3,6.7,15,15,15
		c2.6,0,5.1-0.7,7.2-1.9c2.1,1.2,4.3,1.9,6.6,1.9L27.1,23.9z"/>
	<path fill="#FFFFFF" d="M4,15c0-1.5,1.2-2.7,2.7-2.7s2.7,1.2,2.7,2.7s-1.2,1.1-2.7,1.1S4,16.5,4,15z"/>
	<path fill="#FFFFFF" d="M20.5,15c0-1.5,1.2-2.7,2.7-2.7c1.5,0,2.7,1.2,2.7,2.7s-1.2,1.1-2.7,1.1C21.7,16.1,20.5,16.5,20.5,15z"/>
	<path opacity="0.7" fill="#FFFFFF" d="M19.1,18c0,3-1.8,4.1-4.1,4.1S10.9,21,10.9,18H19.1z"/>
</g>
</svg>
