<?xml version="1.0" encoding="utf-8"?>
<!-- Generator: Adobe Illustrator 18.1.1, SVG Export Plug-In . SVG Version: 6.00 Build 0)  -->
<!DOCTYPE svg PUBLIC "-//W3C//DTD SVG 1.1//EN" "http://www.w3.org/Graphics/SVG/1.1/DTD/svg11.dtd">
<svg version="1.1" id="Layer_1" xmlns="http://www.w3.org/2000/svg" xmlns:xlink="http://www.w3.org/1999/xlink" x="0px" y="0px"
	 viewBox="0 0 30 30" enable-background="new 0 0 30 30" xml:space="preserve">
<g>
	<path fill="#B2BAC2" d="M15,30c-0.1,0-0.2,0-0.3,0c-3.8,0-7.4-1.8-10.1-4.6s-4.1-6.5-4-10.4c0.1-3.2,1.1-6.3,3.1-8.8
		c1.1-1.4,3.1-1.6,4.4-0.5c1.4,1.1,1.6,3.1,0.5,4.4c-1.1,1.4-1.7,3.1-1.8,4.9c0,2.2,0.8,4.1,2.3,5.6c1.5,1.6,3.5,2.3,5.7,2.3
		c0.1,0,0.1,0,0.2,0c4.4,0,8-3.4,8.1-7.8c0-2-0.6-3.8-1.9-5.3c-1.1-1.3-1-3.3,0.4-4.4c1.3-1.1,3.3-1,4.4,0.4
		c2.3,2.7,3.5,6.3,3.4,9.8C29.2,23.5,22.8,30,15,30z"/>
	<g>
		<g>
			<path fill="#B2BAC2" d="M15,0L15,0c1.7,0,3.2,1.4,3.2,3.2v12.2c0,1.7-1.4,3.2-3.2,3.2l0,0c-1.7,0-3.2-1.4-3.2-3.2V3.1
				C11.8,1.4,13.3,0,15,0z"/>
		</g>
	</g>
</g>
</svg>
