<?xml version="1.0" encoding="utf-8"?>
<!-- Generator: Adobe Illustrator 18.1.1, SVG Export Plug-In . SVG Version: 6.00 Build 0)  -->
<!DOCTYPE svg PUBLIC "-//W3C//DTD SVG 1.1//EN" "http://www.w3.org/Graphics/SVG/1.1/DTD/svg11.dtd">
<svg version="1.1" id="Layer_1" xmlns="http://www.w3.org/2000/svg" xmlns:xlink="http://www.w3.org/1999/xlink" x="0px" y="0px"
	 viewBox="0 0 64.3 56.8" enable-background="new 0 0 64.3 56.8" xml:space="preserve">
<g>
	<path d="M64,26.1c-1.9-6-5.9-10.9-10.9-14.1L49.8,1.1c-0.2-0.5-0.6-0.9-1.1-1c-0.5-0.1-1.1,0.1-1.4,0.5l-6.6,7.5
		c-1.7-0.1-3.3,0-5,0.2c-1,0.1-2.1,0.4-3.1,0.6c-1,0-2.1,0.1-3.2,0.2c-0.2,0-0.3,0.1-0.5,0.1l-8.8-4.7c-0.5-0.3-1.1-0.2-1.5,0.1
		c-0.5,0.3-0.7,0.8-0.7,1.4l0.5,7.5C11.8,17.9,7.4,25.3,7,33.7c0,0.1,0,0.2,0,0.4l-1.8,0.3c-3.3,0.5-5.6,3.5-5.1,6.8
		s3.5,5.6,6.8,5.1L36.6,42c1.6-0.2,3.2,0.9,3.4,2.6c0.2,1.6-0.9,3.2-2.6,3.4l-4.9,0.7c-3.3,0.5-5.6,3.5-5.1,6.8
		c0.1,0.8,0.9,1.4,1.7,1.3c0.8-0.1,1.4-0.9,1.3-1.7c-0.2-1.6,0.9-3.2,2.6-3.4l4.9-0.7c3.3-0.5,5.6-3.5,5.1-6.8s-3.5-5.6-6.8-5.1
		L6.4,43.2c-1.6,0.2-3.2-0.9-3.4-2.6c-0.2-1.6,0.9-3.2,2.6-3.4l2.1-0.3c0.3,0.5,0.6,0.9,1,1.3c1,0.9,2.3,1.3,3.7,1.1l47.5-6.6
		c1.5-0.2,2.8-1.1,3.7-2.4C64.3,29,64.5,27.5,64,26.1z M47.7,4.5l1.7,5.6c-1.7-0.7-3.4-1.2-5.2-1.6L47.7,4.5z M21.5,15L21.5,15
		l-0.2-3.3l-0.2-3.3l3.5,1.9l2,1.1C24.7,12.3,23.1,13.5,21.5,15C21.6,15,21.5,15,21.5,15z M18.6,16.9l0.1,1.1c-3.1,4-5,8.9-5.4,13.9
		c0,0.4-0.1,0.8-0.1,1.2c-0.2,1.2-0.6,2.4-1.6,3.2c-0.4,0-0.6-0.1-0.9-0.3c-0.5-0.4-0.7-1.3-0.7-2.2c0-0.1,0-0.1,0-0.2
		C10.4,26.9,13.7,20.9,18.6,16.9z M60.9,28.7c-0.3,0.5-0.9,0.9-1.5,1l-1.6,0.2l-18.2,2.5l-24.1,3.4c0.4-1.1,0.6-2.2,0.7-3.1
		c0-0.2,0-0.4,0-0.5c0.3-3.5,1.4-6.8,3.1-9.8c0.3-0.5,0.6-1.1,1-1.6c0.6-0.9,1.3-1.7,2-2.5c0.1-0.1,0.1-0.1,0.2-0.2
		c2-2.1,4.5-3.8,7.2-5c0.6-0.3,1.2-0.5,1.8-0.7c0.5-0.2,0.9-0.3,1.4-0.5c0.2-0.1,0.4-0.1,0.6-0.2c0.8-0.2,1.6-0.4,2.5-0.5
		c0.7-0.1,1.4-0.2,2-0.2c0.7,0,1.3,0,2,0c0.6,0,1.2,0.1,1.9,0.1c1,0.1,1.9,0.3,2.9,0.5c2,0.5,4,1.3,5.8,2.3c0.7,0.4,1.3,0.8,1.9,1.2
		c0.6,0.4,1.2,0.9,1.8,1.4c3.1,2.7,5.5,6.2,6.8,10.3C61.4,27.6,61.3,28.2,60.9,28.7z"/>
	<path d="M43.6,26.8c-0.5-0.2-1.1,0.1-1.3,0.6c-0.2,0.5-1.1,1.1-1.8,1.2c0,0-0.1,0-0.1,0c0,0,0,0,0,0c-0.4,0-0.6-0.3-0.7-0.6
		l-0.3-1.8c0-0.2,0-0.3,0.1-0.5l0.8-1.8c0.2-0.3,0.1-0.7-0.1-1.1c-0.2-0.3-0.6-0.5-1-0.4l-1.3,0.2c0,0,0,0,0,0c0,0,0,0,0,0l-1.3,0.2
		c-0.4,0.1-0.7,0.3-0.8,0.7c-0.1,0.4-0.1,0.8,0.2,1l1.3,1.5c0.1,0.1,0.2,0.3,0.2,0.4l0.2,1.8c0,0.3-0.1,0.6-0.5,0.7c0,0-0.1,0-0.1,0
		c-0.7,0.1-1.7-0.2-2-0.6c-0.3-0.5-1-0.6-1.5-0.2c-0.5,0.3-0.6,1-0.2,1.5c0.2,0.2,0.4,0.4,0.6,0.6c1,0.8,2.4,1,3.4,0.9
		c0.1,0,0.2,0,0.3,0c0,0,0,0,0,0c0.6-0.1,1-0.4,1.4-0.8c0.5,0.3,1,0.4,1.6,0.4c0,0,0,0,0.1,0c0.1,0,0.2,0,0.3,0c0,0,0.1,0,0.1,0
		c1.3-0.2,2.9-1.1,3.4-2.5C44.4,27.6,44.2,27,43.6,26.8z"/>
	<path d="M53.2,20.6L47,21.5c0,0,0,0,0,0c-0.3,0-0.6,0.3-0.5,0.7c0,0.3,0.3,0.6,0.7,0.5l6.1-0.8c0,0,0,0,0,0c0.3,0,0.6-0.3,0.5-0.7
		C53.8,20.8,53.5,20.6,53.2,20.6z"/>
	<path d="M29.4,25.1c0.3,0,0.6-0.3,0.5-0.7c0-0.3-0.3-0.6-0.7-0.5l-6.1,0.8c0,0,0,0,0,0c-0.3,0-0.6,0.3-0.5,0.7
		c0,0.3,0.3,0.6,0.7,0.5L29.4,25.1C29.4,25.1,29.4,25.1,29.4,25.1z"/>
	<path d="M52.8,23.4l-5.4-0.2c-0.3,0-0.6,0.2-0.6,0.6c0,0.3,0.2,0.6,0.6,0.6l5.4,0.2c0,0,0.1,0,0.1,0c0.3,0,0.5-0.3,0.5-0.6
		C53.4,23.7,53.1,23.4,52.8,23.4z"/>
	<path d="M30.1,26.1c-0.1-0.3-0.4-0.5-0.8-0.4l-5.1,1.6c-0.3,0.1-0.5,0.4-0.4,0.8c0.1,0.3,0.4,0.5,0.7,0.4c0,0,0.1,0,0.1,0l5.1-1.6
		C30.1,26.8,30.2,26.4,30.1,26.1z"/>
	<path d="M52.4,26.2L47.8,25c-0.3-0.1-0.6,0.1-0.7,0.4c-0.1,0.3,0.1,0.6,0.4,0.7l4.6,1.2c0.1,0,0.2,0,0.2,0c0.2,0,0.4-0.2,0.5-0.4
		C52.9,26.6,52.7,26.3,52.4,26.2z"/>
	<path d="M29.5,27.6l-4.1,2.4c-0.3,0.2-0.4,0.5-0.2,0.8c0.1,0.2,0.4,0.3,0.6,0.3c0.1,0,0.1,0,0.2-0.1l4.1-2.4
		c0.3-0.2,0.4-0.5,0.2-0.8C30.2,27.5,29.8,27.4,29.5,27.6z"/>
	<path d="M40.5,18.5c-0.3,0.4-0.3,0.9,0.1,1.3c0.4,0.3,0.9,0.3,1.3-0.1c0.2-0.3,1.1-1,2.4,0c0.2,0.2,0.5,0.2,0.7,0.2
		c0.2,0,0.4-0.1,0.6-0.3c0.3-0.4,0.3-0.9-0.1-1.3C43.4,16.7,41.4,17.5,40.5,18.5z"/>
	<path d="M34.4,20.6c0.2-0.4,0-1-0.4-1.2c-0.9-0.5-3.1-0.8-4.6,1.2c-0.3,0.4-0.2,1,0.2,1.3C29.8,22,30,22,30.2,22
		c0.2,0,0.4-0.2,0.6-0.4c0.9-1.3,2.2-0.8,2.4-0.7C33.7,21.2,34.2,21,34.4,20.6z"/>
</g>
</svg>
