<?xml version="1.0" encoding="utf-8"?>
<!-- Generator: Adobe Illustrator 18.1.0, SVG Export Plug-In . SVG Version: 6.00 Build 0)  -->
<!DOCTYPE svg PUBLIC "-//W3C//DTD SVG 1.1//EN" "http://www.w3.org/Graphics/SVG/1.1/DTD/svg11.dtd">
<svg version="1.1" id="all" xmlns="http://www.w3.org/2000/svg" xmlns:xlink="http://www.w3.org/1999/xlink" x="0px" y="0px"
	 width="885px" height="470px" viewBox="0 0 885 470" enable-background="new 0 0 885 470" xml:space="preserve">
<g>
	<g>
		<circle fill="#8E511A" cx="497.4" cy="74" r="27.8"/>
		<circle fill="#B76E23" cx="497.4" cy="74" r="18.3"/>
	</g>
	<g>
		<circle fill="#8E511A" cx="387.6" cy="74" r="27.8"/>
		<circle fill="#B76E23" cx="387.6" cy="74" r="18.3"/>
	</g>
	<path fill="#804917" d="M372,122.8c0-40,32.4-72.5,72.4-72.6c40-0.1,72.7,33.7,72.8,73.7c18,34.3,3.7,50.8-58.3,67.8
		c-9.3,2.5-19.1,2.4-28.3-0.5C367.7,171.6,354.2,158.5,372,122.8z"/>
	<g>
		<ellipse fill="#B76E23" cx="425" cy="103.2" rx="36" ry="37.7"/>
		<ellipse fill="#B76E23" cx="444.6" cy="144.1" rx="63.3" ry="37.7"/>
		<ellipse fill="#B76E23" cx="461" cy="103.2" rx="36" ry="37.7"/>
	</g>
	<path fill="#FFFFFF" d="M476.3,103.2c0,13.6-7.1,24.6-15.8,24.6s-15.8-11-15.8-24.6S455.2,85,464,85
		C472.7,85,476.3,89.6,476.3,103.2z"/>
	<path fill="#2D3339" d="M454.7,106.1c0-2.3,1.8-6.1,4.1-6.1c2.3,0,4.1,3.9,4.1,6.1s-1.8,4.1-4.1,4.1
		C456.6,110.2,454.7,108.4,454.7,106.1z"/>
	<path fill="#FFFFFF" d="M445.7,105.1c0,12.5-7.4,22.6-16.5,22.6s-16.5-10.1-16.5-22.6s6.7-16.9,15.8-16.9
		C437.6,88.2,445.7,92.6,445.7,105.1z"/>
	<path fill="#2D3339" d="M425.7,106.1c0-2.3,1.8-6.1,4.1-6.1c2.3,0,4.1,3.9,4.1,6.1s-1.8,4.1-4.1,4.1
		C427.6,110.2,425.7,108.4,425.7,106.1z"/>
	<path fill="#8E511A" d="M444.1,93.3l-32,5.2C412.2,98.5,423.4,55.1,444.1,93.3z"/>
	<path fill="#724115" d="M412.9,114l32.4,1.5C445.3,115.5,429.2,146,412.9,114z"/>
	<path fill="#8E511A" d="M478,98.8l-31.9-5.8C446.1,92.9,471.3,55.9,478,98.8z"/>
	<path fill="#724115" d="M445.4,116.1l32.1-4.5C477.5,111.6,462.9,145,445.4,116.1z"/>
</g>
</svg>
