<?xml version="1.0" encoding="utf-8"?>
<!-- Generator: Adobe Illustrator 18.1.0, SVG Export Plug-In . SVG Version: 6.00 Build 0)  -->
<!DOCTYPE svg PUBLIC "-//W3C//DTD SVG 1.1//EN" "http://www.w3.org/Graphics/SVG/1.1/DTD/svg11.dtd">
<svg version="1.1" id="Layer_1" xmlns="http://www.w3.org/2000/svg" xmlns:xlink="http://www.w3.org/1999/xlink" x="0px" y="0px"
	 width="300px" height="300px" viewBox="0 0 300 300" enable-background="new 0 0 300 300" xml:space="preserve">
<path fill="#FCD027" d="M150,300L150,300C67.2,300,0,232.8,0,150v0C0,67.2,67.2,0,150,0h0c82.8,0,150,67.2,150,150v0
	C300,232.8,232.8,300,150,300z"/>
<g>
	<g>
		<g>
			<circle fill="#8E511A" cx="215.8" cy="94.8" r="33.3"/>
			<circle fill="#B76E23" cx="215.8" cy="94.8" r="21.9"/>
		</g>
		<g>
			<circle fill="#8E511A" cx="84.2" cy="94.8" r="33.3"/>
			<circle fill="#B76E23" cx="84.2" cy="94.8" r="21.9"/>
		</g>
		<path fill="#804917" d="M65.5,153.6c0-48,38.8-86.9,86.8-87.1c47.9-0.2,87.3,40.4,87.4,88.4c21.6,41.2,4.4,60.9-69.9,81.3
			c-11.1,3.1-22.9,2.8-34-0.6C60.3,212.1,44.1,196.4,65.5,153.6z"/>
		<g>
			<ellipse fill="#B76E23" cx="129" cy="129.8" rx="43.2" ry="45.2"/>
			<ellipse fill="#B76E23" cx="152.6" cy="178.9" rx="75.9" ry="45.2"/>
			<ellipse fill="#B76E23" cx="172.2" cy="129.8" rx="43.2" ry="45.2"/>
		</g>
		<path fill="#FFFFFF" d="M190.5,129.8c0,16.3-8.5,29.5-19,29.5c-10.5,0-19-13.2-19-29.5s12.7-21.8,23.2-21.8
			C186.2,108,190.5,113.6,190.5,129.8z"/>
		<path fill="#2D3339" d="M164.7,133.4c0-2.7,2.2-7.4,4.9-7.4c2.7,0,4.9,4.6,4.9,7.4c0,2.7-2.2,4.9-4.9,4.9
			C166.9,138.3,164.7,136.1,164.7,133.4z"/>
		<path fill="#FFFFFF" d="M153.9,132.2c0,15-8.9,27.1-19.8,27.1s-19.8-12.1-19.8-27.1s8-20.2,19-20.2S153.9,117.2,153.9,132.2z"/>
		<path fill="#2D3339" d="M129.9,133.4c0-2.7,2.2-7.4,4.9-7.4c2.7,0,4.9,4.6,4.9,7.4c0,2.7-2.2,4.9-4.9,4.9
			C132.1,138.3,129.9,136.1,129.9,133.4z"/>
		<path fill="#8E511A" d="M152,117.9l-38.4,6.3C113.6,124.2,127.1,72.2,152,117.9z"/>
		<path fill="#724115" d="M114.5,142.9l38.8,1.8C153.3,144.7,134,181.2,114.5,142.9z"/>
		<path fill="#8E511A" d="M192.6,124.5l-38.2-7C154.3,117.6,184.5,73.1,192.6,124.5z"/>
		<path fill="#724115" d="M153.4,145.3l38.5-5.4C191.9,140,174.5,180,153.4,145.3z"/>
	</g>
	<g>
		<path fill="#2D3339" d="M173.8,175.3c0,13.1-10.6,23.8-23.8,23.8s-23.8-10.6-23.8-23.8s10.4-8,23.6-8S173.8,162.2,173.8,175.3z"/>
		<path fill="#F85C5C" d="M150,199.1c-13.1,0-21.3-8.6,0.3-9.5C173.9,188.6,163.1,199.1,150,199.1z"/>
		<path fill="#FFFFFF" d="M148,180.9l-4.3,7.9c-1.4,2.7-5.3,2.7-6.7,0l-4.3-7.9l7.6,0.7L148,180.9z"/>
		<path fill="#FFFFFF" d="M168.4,180.9l-4.3,7.9c-1.4,2.7-5.3,2.7-6.7,0l-4.3-7.9l7.6,0.7L168.4,180.9z"/>
		<path fill="#E08B2C" d="M116.2,170.4c0-18.6,15.1-33.8,33.8-33.8s33.8,15.1,33.8,33.8s-14.8,11.4-33.5,11.4
			S116.2,189.1,116.2,170.4z"/>
		<path fill="#2D3339" d="M131.3,154.5c0-11.9,1.3-18.3,17.7-18.3c19-0.1,20.3,6.4,20.3,18.3c0,11.9-11.2,5.4-18.7,15.7
			C140.4,157.5,131.3,166.4,131.3,154.5z"/>
	</g>
</g>
</svg>
