<?xml version="1.0" encoding="utf-8"?>
<!-- Generator: Adobe Illustrator 18.1.0, SVG Export Plug-In . SVG Version: 6.00 Build 0)  -->
<!DOCTYPE svg PUBLIC "-//W3C//DTD SVG 1.1//EN" "http://www.w3.org/Graphics/SVG/1.1/DTD/svg11.dtd">
<svg version="1.1" id="all" xmlns="http://www.w3.org/2000/svg" xmlns:xlink="http://www.w3.org/1999/xlink" x="0px" y="0px"
	 width="885px" height="470px" viewBox="0 0 885 470" enable-background="new 0 0 885 470" xml:space="preserve">
<g>
	<path opacity="5.000000e-02" fill="#231F20" enable-background="new    " d="M574.8,410.4c0,7.6-59.6,13.8-133.3,13.8
		s-133.3-6.2-133.3-13.8s59.6-9.1,133.3-9.1S574.8,402.6,574.8,410.4z"/>
	<polygon fill="#724115" points="345.6,305.4 374,411 412,411 425.6,367 	"/>
	<polygon fill="#724115" points="405.7,160.7 309.7,205.3 318,240.7 345.6,238 	"/>
	<polygon fill="#724115" points="539.6,305.4 511.2,411 473.2,411 459.7,367 	"/>
	<polygon fill="#724115" points="479.6,160.7 575.6,205.3 567.2,240.7 539.6,238 	"/>
	<path fill="#804917" d="M336,261c0-59.1,47.9-107,107-107s107,47.9,107,107s-7.8,105.5-107,107C348.5,368,336,320.1,336,261z"/>
	<path fill="#8E511A" d="M309.7,205.3l-28.8,13.1c-2.6,1.2-3.7,4.3-2.3,6.9l9.1,17.2c1,1.9,3.2,3,5.3,2.6l25.2-4.4L309.7,205.3z"/>
	<path fill="#804917" d="M519.2,382.6l16.9,20.1c2.7,3.3,0.4,8.2-3.8,8.2l-59,0.1L519.2,382.6z"/>
	<path fill="#804917" d="M366.3,382.6l-16.9,20.1c-2.7,3.3-0.4,8.2,3.8,8.2L412,411L366.3,382.6z"/>
	<path fill="#B76E23" d="M374.8,261c0-24.2,30.6-61.5,68.2-61.5s68.2,37,68.2,61.5c0,37.7-12,76.2-68.2,76.2
		C381.9,336,374.8,298.7,374.8,261z"/>
	<circle fill="#B76E23" cx="301.5" cy="227.8" r="8.5"/>
	<path fill="#8E511A" d="M575.3,205.3l28.8,13.1c2.6,1.2,3.7,4.3,2.3,6.9l-9.1,17.2c-1,1.9-3.2,3-5.3,2.6l-25.2-4.4L575.3,205.3z"/>
	<circle fill="#B76E23" cx="583.5" cy="227.8" r="8.5"/>
</g>
</svg>
