<?xml version="1.0" encoding="utf-8"?>
<!-- Generator: Adobe Illustrator 18.1.0, SVG Export Plug-In . SVG Version: 6.00 Build 0)  -->
<!DOCTYPE svg PUBLIC "-//W3C//DTD SVG 1.1//EN" "http://www.w3.org/Graphics/SVG/1.1/DTD/svg11.dtd">
<svg version="1.1" id="all" xmlns="http://www.w3.org/2000/svg" xmlns:xlink="http://www.w3.org/1999/xlink" x="0px" y="0px"
	 width="885px" height="470px" viewBox="0 0 885 470" enable-background="new 0 0 885 470" xml:space="preserve">
<g>
	<rect x="385.8" y="70.1" fill="#2D3339" width="116.2" height="5.2"/>
	<path fill="#FF4F7A" d="M496.8,70.1H393.4V42.2c0-14.8,12-26.8,26.8-26.8H470c14.8,0,26.8,12,26.8,26.8V70.1z"/>
	<rect x="441.1" y="10.3" fill="#2D3339" width="10.3" height="5.1"/>
	<g>
		<path fill="#FFFFFF" d="M413.4,50.1H413c-0.6,0-1.2-0.5-1.2-1.2s0.5-1.2,1.2-1.2h0.8l0.5-2.7h-0.6c-0.6,0-1.2-0.5-1.2-1.2
			c0-0.6,0.5-1.2,1.2-1.2h1l0.3-1.8c0.1-0.6,0.6-1,1.2-1c0.7,0,1.3,0.7,1.2,1.4l-0.2,1.4h2.5l0.3-1.8c0.1-0.6,0.6-1,1.2-1
			c0.7,0,1.3,0.7,1.2,1.4l-0.2,1.4h0.4c0.6,0,1.2,0.5,1.2,1.2c0,0.6-0.5,1.2-1.2,1.2h-0.8l-0.5,2.7h0.6c0.6,0,1.2,0.5,1.2,1.2
			s-0.5,1.2-1.2,1.2h-1l-0.3,1.9c-0.1,0.6-0.6,1-1.2,1c-0.7,0-1.3-0.7-1.2-1.4l0.3-1.5h-2.5l-0.3,1.9c-0.1,0.5-0.5,1-1.2,1
			c-0.7,0-1.3-0.6-1.2-1.4L413.4,50.1z M418.7,47.8l0.5-2.7h-2.5l-0.5,2.7H418.7z"/>
		<path fill="#FFFFFF" d="M429,47.9l-4.1-5.6c-0.2-0.3-0.3-0.6-0.3-1c0-0.8,0.6-1.4,1.4-1.4c0.6,0,1,0.3,1.4,0.9l3.1,4.5l3.2-4.5
			c0.3-0.5,0.8-0.8,1.4-0.8c0.9,0,1.4,0.6,1.4,1.4c0,0.4-0.2,0.7-0.4,1l-4.1,5.6v3.7c0,0.8-0.6,1.4-1.4,1.4c-0.8,0-1.4-0.6-1.4-1.4
			V47.9z"/>
		<path fill="#FFFFFF" d="M437,46.5L437,46.5c0-3.7,2.9-6.7,6.8-6.7c4,0,6.8,2.9,6.8,6.6v0c0,3.6-2.9,6.6-6.8,6.6S437,50.2,437,46.5
			z M447.7,46.5L447.7,46.5c0-2.2-1.6-4.1-3.9-4.1s-3.8,1.8-3.8,4v0c0,2.2,1.6,4,3.9,4C446.1,50.5,447.7,48.7,447.7,46.5z"/>
		<path fill="#FFFFFF" d="M453.1,41.4c0-0.8,0.6-1.4,1.4-1.4c0.8,0,1.4,0.6,1.4,1.4v9h5.2c0.7,0,1.3,0.6,1.3,1.3
			c0,0.7-0.6,1.3-1.3,1.3h-6.6c-0.8,0-1.4-0.6-1.4-1.4V41.4z"/>
		<path fill="#FFFFFF" d="M463.2,46.5L463.2,46.5c0-3.7,2.9-6.7,6.8-6.7c4,0,6.8,2.9,6.8,6.6v0c0,3.6-2.9,6.6-6.8,6.6
			C466,53.1,463.2,50.2,463.2,46.5z M473.9,46.5L473.9,46.5c0-2.2-1.6-4.1-3.9-4.1s-3.8,1.8-3.8,4v0c0,2.2,1.6,4,3.9,4
			C472.3,50.5,473.9,48.7,473.9,46.5z"/>
	</g>
</g>
</svg>
